<svg width="221" height="29" xmlns="http://www.w3.org/2000/svg">
 <title>中文备份</title>

 <g>
  <title>background</title>
  <rect fill="none" id="canvas_background" height="402" width="582" y="-1" x="-1"/>
 </g>
 <g>
  <title>Layer 1</title>
  <g fill-rule="evenodd" fill="none" id="中文备份">
   <g fill-rule="nonzero" fill="#999999" id="邮件底部-2021">
    <path fill="#000000" id="路径" d="m7.45776,1.559541c0.64273,0.49857 1.05674,1.2357 1.148,2.044l-0.944,0c-0.0984,-0.58268 -0.42707,-1.10128 -0.912,-1.439c-0.50327,-0.33211 -1.09737,-0.49951 -1.7,-0.479c-0.89057,-0.04658 -1.74827,0.34236 -2.3,1.043c-0.53334,0.74444 -0.7994,1.6473 -0.755,2.562c-0.0546,0.90679 0.20614,1.80454 0.738,2.541c0.55969,0.68068 1.41133,1.05241 2.291,1c0.62353,0.01793 1.23531,-0.17204 1.739,-0.54c0.53369,-0.42513 0.89562,-1.02893 1.019,-1.7l0.948,0c-0.26372,1.8291 -1.85885,3.16857 -3.706,3.112c-1.17109,0.06881 -2.30563,-0.42076 -3.059,-1.32c-0.67431,-0.88608 -1.01396,-1.98188 -0.959,-3.094c-0.04875,-1.12622 0.29911,-2.23387 0.983,-3.13c0.74617,-0.91882 1.88828,-1.42328 3.07,-1.356c0.8623,-0.02764 1.70834,0.23897 2.399,0.756l0,0z"/>
    <path fill="#000000" id="形状" d="m14.97076,4.125541c0.54129,0.64712 0.82347,1.47193 0.792,2.315c0.02979,0.83349 -0.24781,1.64885 -0.78,2.291c-0.55748,0.6454 -1.37773,1.00292 -2.23,0.972c-0.85007,0.03604 -1.66911,-0.32273 -2.219,-0.972c-0.54106,-0.63783 -0.82362,-1.45519 -0.792,-2.291c-0.03146,-0.84307 0.25072,-1.66788 0.792,-2.315c0.5517,-0.64543 1.37087,-0.99946 2.219,-0.959c0.84734,-0.03772 1.66505,0.31584 2.218,0.959zm-3.754,0.6c-0.34709,0.5025 -0.51991,1.10492 -0.492,1.715c-0.02556,0.60513 0.14719,1.20206 0.492,1.7c0.34928,0.49715 0.92801,0.7818 1.535,0.755c0.60867,0.01906 1.18753,-0.26345 1.547,-0.755c0.33805,-0.50113 0.51015,-1.09578 0.492,-1.7c0.0223,-0.60941 -0.15002,-1.21009 -0.492,-1.715c-0.35947,-0.49155 -0.93833,-0.77406 -1.547,-0.755c-0.60699,-0.0268 -1.18572,0.25785 -1.535,0.755l0,0z"/>
    <path fill="#000000" id="形状" d="m22.08676,4.161541c0.49087,0.66032 0.74074,1.46886 0.708,2.291c0.02618,0.81261 -0.22023,1.61062 -0.7,2.267c-0.48953,0.64699 -1.26427,1.01401 -2.075,0.983c-0.8758,0.00601 -1.67507,-0.49807 -2.047,-1.291l0,3.5l-0.959,0l0,-8.577l0.9,0l0,1.02c0.39536,-0.76565 1.20132,-1.23 2.062,-1.188c0.82434,-0.03499 1.61335,0.3369 2.111,0.995zm-3.681,0.528c-0.33096,0.50332 -0.49473,1.09821 -0.468,1.7l0,0.122c-0.03336,0.62365 0.15353,1.23918 0.528,1.739c0.3165,0.42842 0.82256,0.67491 1.355,0.66c0.59196,0.03169 1.16158,-0.23011 1.523,-0.7c0.33801,-0.52361 0.50182,-1.14068 0.468,-1.763c0.0276,-0.61465 -0.12685,-1.22377 -0.444,-1.751c-0.33868,-0.49542 -0.91181,-0.77763 -1.511,-0.744c-0.57939,-0.02553 -1.12987,0.25407 -1.451,0.737z"/>
    <polygon fill="#000000" points="24.40576171875,3.3345410972833633 26.305761337280273,8.228541150689125 28.140762329101562,3.3345410972833633 29.195762634277344,3.3345410972833633 25.795761108398438,11.911540761590004 24.752761840820312,11.911540761590004 25.819761276245117,9.392540708184242 23.36176109313965,3.3345410972833633 " id="路径"/>
    <path fill="#000000" id="路径" d="m33.57176,3.311541l0,0.959c-0.29969,-0.08983 -0.61114,-0.13432 -0.924,-0.132c-0.48432,-0.00261 -0.93824,0.23578 -1.211,0.636c-0.33501,0.41706 -0.50956,0.94033 -0.492,1.475l0,3.286l-0.947,0l0,-6.2l0.947,0l0,1.076c0.14456,-0.33185 0.36681,-0.62407 0.648,-0.852c0.31595,-0.26345 0.71566,-0.40532 1.127,-0.4c0.29122,-0.00567 0.58071,0.04598 0.852,0.152z"/>
    <path fill="#000000" id="形状" d="m35.68476,1.203541c0.14713,0.12344 0.22875,0.3081 0.221,0.5c0.00284,0.19454 -0.07542,0.38149 -0.216,0.516c-0.29017,0.27117 -0.74082,0.27117 -1.031,0c-0.13606,-0.13636 -0.20862,-0.32357 -0.2,-0.516c-0.01418,-0.18862 0.05965,-0.3732 0.2,-0.5c0.28947,-0.26807 0.73653,-0.26807 1.026,0l0,0zm-0.036,2.135l0,6.2l-0.96,0l0,-6.2l0.96,0z"/>
    <path fill="#000000" id="形状" d="m42.09076,4.403541l0,-1.069l0.959,0l0,5.769c0,1.979 -0.948,2.974 -2.831,2.974c-0.67712,0.04757 -1.35118,-0.12805 -1.919,-0.5c-0.46555,-0.37385 -0.76342,-0.91742 -0.828,-1.511l0.959,0c0.0422,0.36698 0.23305,0.7006 0.528,0.923c0.37658,0.23342 0.817,0.34257 1.259,0.312c1.247,0 1.871,-0.7 1.871,-2.063l0,-1.095c-0.38916,0.78869 -1.20401,1.27651 -2.083,1.247c-0.78324,0.03302 -1.53864,-0.29367 -2.051,-0.887c-0.51674,-0.61619 -0.78396,-1.40357 -0.749,-2.207c-0.03869,-0.80658 0.22642,-1.59835 0.743,-2.219c0.50377,-0.61089 1.26608,-0.9485 2.057,-0.911c0.87808,-0.03471 1.6946,0.44972 2.085,1.237zm-3.4,0.228c-0.35607,0.4803 -0.53295,1.07001 -0.5,1.667c-0.02794,0.56721 0.12777,1.1283 0.444,1.6c0.35001,0.47131 0.91396,0.73448 1.5,0.7c0.56525,0.0266 1.1101,-0.21416 1.471,-0.65c0.3514,-0.47426 0.52804,-1.05541 0.5,-1.645c0.03296,-0.59699 -0.14392,-1.1867 -0.5,-1.667c-0.3461,-0.44657 -0.88757,-0.69717 -1.452,-0.672c-0.56625,-0.03405 -1.11248,0.21509 -1.458,0.665l-0.005,0.002z"/>
    <path fill="#000000" id="路径" d="m45.50076,0.803541l0,3.55c0.3845,-0.74156 1.15581,-1.2014 1.991,-1.187c0.62237,-0.04355 1.23227,0.18951 1.667,0.637c0.41486,0.51337 0.62058,1.16446 0.576,1.823l0,3.91l-0.959,0l0,-3.768c0.02778,-0.47821 -0.11699,-0.95051 -0.408,-1.331c-0.31272,-0.32336 -0.75092,-0.49426 -1.2,-0.468c-0.46459,-0.00696 -0.90497,0.20674 -1.187,0.576c-0.32774,0.41077 -0.49638,0.92594 -0.475,1.451l0,3.538l-0.959,0l0,-8.731l0.954,0z"/>
    <path fill="#000000" id="路径" d="m52.86776,3.334541l1.538,0l0,0.8l-1.538,0l0,3.949c-0.02046,0.17484 0.02677,0.35088 0.132,0.492c0.123,0.11432 0.28876,0.17102 0.456,0.156l0.792,0l0,0.8l-0.936,0c-0.40545,0.0386 -0.80658,-0.10847 -1.091,-0.4c-0.22245,-0.30472 -0.32883,-0.67883 -0.3,-1.055l0,-3.938l-1.248,0l0,-0.8l1.247,0l0,-1.611l0.947,-0.4l0.001,2.007z"/>
    <path fill="#000000" id="形状" d="m66.68876,2.103541c0.84682,0.82701 1.31528,1.96652 1.295,3.15c0.00745,1.17279 -0.45131,2.30051 -1.27535,3.13505c-0.82404,0.83455 -1.94585,1.30755 -3.11865,1.31495l-0.055,0c-1.18442,0.02217 -2.32552,-0.44526 -3.154,-1.292c-0.84598,-0.82961 -1.3157,-1.96922 -1.3,-3.154c-0.02008,-1.18561 0.45033,-2.32688 1.3,-3.154c1.74824,-1.7275 4.56076,-1.7275 6.309,0l-0.001,0zm-5.9,0.408c-0.74749,0.71591 -1.16094,1.71219 -1.14,2.747c-0.01648,1.03338 0.39631,2.02732 1.14,2.745c0.71922,0.7423 1.71356,1.15386 2.747,1.137c1.03223,0.01208 2.02445,-0.39876 2.746,-1.137c0.7396,-0.72129 1.15156,-1.71398 1.14,-2.747c0.01471,-1.03265 -0.39825,-2.02542 -1.141,-2.743c-0.71767,-0.74442 -1.7121,-1.15762 -2.746,-1.141c-1.03482,-0.02207 -2.03141,0.39115 -2.747,1.139l0.001,0zm4.377,0.432c0.43215,0.33014 0.71327,0.82029 0.78,1.36l-0.816,0c-0.06579,-0.32471 -0.25463,-0.61138 -0.527,-0.8c-0.74068,-0.45865 -1.70175,-0.3333 -2.3,0.3c-0.30887,0.42758 -0.4614,0.94834 -0.432,1.475c-0.03213,0.52335 0.13027,1.04011 0.456,1.451c0.32095,0.38019 0.80356,0.58511 1.3,0.552c0.3663,0.00872 0.725,-0.10533 1.019,-0.324c0.2832,-0.2505 0.47933,-0.58462 0.56,-0.954l0.815,0c-0.09011,0.60004 -0.39717,1.14619 -0.863,1.535c-0.44514,0.32285 -0.98545,0.48758 -1.535,0.468c-0.74874,0.04487 -1.47575,-0.26116 -1.967,-0.828c-0.43011,-0.54019 -0.65159,-1.21705 -0.624,-1.907c-0.03146,-0.69981 0.19483,-1.38686 0.636,-1.931c0.48796,-0.58079 1.22176,-0.89671 1.979,-0.852c0.54135,-0.0253 1.07574,0.1302 1.519,0.442l0,0.013z"/>
    <polygon fill="#000000" points="105.41175842285156,6.020540967583656 105.41175842285156,6.835541024804115 99.35575866699219,6.835541024804115 99.35575866699219,6.020540967583656 " id="路径"/>
    <path fill="#000000" id="路径" d="m111.68976,1.487541c0.50917,0.46185 0.78994,1.12392 0.768,1.811c-0.00821,0.75516 -0.30939,1.47761 -0.84,2.015c-0.54704,0.51439 -1.14134,0.9761 -1.775,1.379c-0.82246,0.43247 -1.47964,1.12373 -1.87,1.967l4.5,0l0,0.875l-5.709,0c-0.00073,-0.79017 0.30255,-1.55034 0.847,-2.123c0.55864,-0.5779 1.18248,-1.08899 1.859,-1.523c0.47587,-0.31908 0.92532,-0.67589 1.344,-1.067c0.4092,-0.40767 0.64527,-0.95755 0.659,-1.535c0.02857,-0.45248 -0.14202,-0.89485 -0.467,-1.211c-0.36494,-0.30486 -0.83226,-0.45932 -1.307,-0.432c-0.52264,-0.03382 -1.02875,0.19028 -1.355,0.6c-0.37269,0.49154 -0.5597,1.09896 -0.528,1.715l-0.983,0c-0.04156,-0.83866 0.24542,-1.6605 0.8,-2.291c0.54079,-0.58006 1.30758,-0.89554 2.1,-0.864c0.71528,-0.02714 1.41436,0.2172 1.957,0.684l0,0z"/>
    <path fill="#000000" id="形状" d="m119.12876,2.159541c0.49956,0.95198 0.73571,2.02015 0.684,3.094c0.05171,1.07385 -0.18444,2.14202 -0.684,3.094c-0.46969,0.83702 -1.3547,1.35523 -2.3145,1.35523c-0.95979,0 -1.84481,-0.51821 -2.3145,-1.35523c-0.49956,-0.95198 -0.7357,-2.02015 -0.684,-3.094c-0.0517,-1.07385 0.18444,-2.14202 0.684,-3.094c0.46969,-0.83702 1.35471,-1.35523 2.3145,-1.35523c0.9598,0 1.84481,0.51821 2.3145,1.35523l0,0zm-3.97,0.72c-0.27015,0.76152 -0.39234,1.56763 -0.36,2.375c-0.03018,0.80725 0.09195,1.61296 0.36,2.375c0.21703,0.73309 0.89047,1.23605 1.655,1.23605c0.76454,0 1.43798,-0.50296 1.655,-1.23605c0.27362,-0.7609 0.4002,-1.56686 0.373,-2.375c0.02942,-0.80828 -0.09722,-1.61465 -0.373,-2.375c-0.21702,-0.73309 -0.89046,-1.23605 -1.655,-1.23605c-0.76453,0 -1.43797,0.50296 -1.655,1.23605l0,0z"/>
    <path fill="#000000" id="路径" d="m126.13176,1.487541c0.50917,0.46185 0.78994,1.12392 0.768,1.811c-0.00822,0.75516 -0.30939,1.47761 -0.84,2.015c-0.54704,0.51439 -1.14134,0.9761 -1.775,1.379c-0.82246,0.43247 -1.47964,1.12373 -1.87,1.967l4.5,0l0,0.875l-5.709,0c-0.00073,-0.79017 0.30255,-1.55034 0.847,-2.123c0.55864,-0.5779 1.18248,-1.08899 1.859,-1.523c0.47587,-0.31908 0.92532,-0.67589 1.344,-1.067c0.4092,-0.40767 0.64527,-0.95755 0.659,-1.535c0.02857,-0.45248 -0.14202,-0.89485 -0.467,-1.211c-0.36494,-0.30486 -0.83226,-0.45932 -1.307,-0.432c-0.52264,-0.03382 -1.02876,0.19028 -1.355,0.6c-0.37269,0.49154 -0.5597,1.09896 -0.528,1.715l-0.983,0c-0.04156,-0.83866 0.24542,-1.6605 0.8,-2.291c0.54079,-0.58006 1.30759,-0.89554 2.1,-0.864c0.71528,-0.02714 1.41436,0.2172 1.957,0.684l0,0z"/>
    <path fill="#000000" id="路径" d="m133.22976,1.427541c0.49576,0.42245 0.77005,1.04918 0.744,1.7c0.05171,0.89198 -0.53481,1.69593 -1.4,1.919c0.44996,0.11893 0.85205,0.3743 1.151,0.731c0.29387,0.35229 0.44767,0.8005 0.432,1.259c0.02182,0.72456 -0.27625,1.42201 -0.815,1.907c-0.59577,0.52009 -1.36892,0.79082 -2.159,0.756c-0.71572,0.02747 -1.41899,-0.19294 -1.991,-0.624c-0.6349,-0.55466 -1.00545,-1.35207 -1.02,-2.195l1,0c-0.01311,0.58569 0.23277,1.14734 0.672,1.535c0.84763,0.62097 2.00887,0.58636 2.818,-0.084c0.33784,-0.33084 0.52448,-0.78623 0.516,-1.259c0.02567,-0.45542 -0.15855,-0.89754 -0.5,-1.2c-0.39741,-0.30468 -0.89243,-0.45369 -1.392,-0.419l-0.7,0l0,-0.764l0.66,0c0.46766,0.03039 0.93089,-0.10642 1.307,-0.386c0.30921,-0.28503 0.47528,-0.69305 0.453,-1.113c0.02103,-0.41833 -0.14061,-0.82517 -0.443,-1.115c-0.36672,-0.30124 -0.83445,-0.45143 -1.308,-0.42c-0.49258,-0.03476 -0.97853,0.12951 -1.349,0.456c-0.35385,0.35559 -0.56304,0.82992 -0.587,1.331l-0.972,0c0.03672,-0.74123 0.36445,-1.43803 0.912,-1.939c0.54328,-0.48225 1.25333,-0.7334 1.979,-0.7c0.71706,-0.03539 1.42328,0.18584 1.992,0.624l0,0z"/>
    <path fill="#000000" id="路径" d="m219.84576,8.323541c0.28677,0.28892 0.28677,0.75508 0,1.044c-0.13572,0.1388 -0.32187,0.21672 -0.516,0.216c-0.19556,0.00833 -0.38469,-0.07083 -0.516,-0.216c-0.13807,-0.13803 -0.21564,-0.32527 -0.21564,-0.5205c0,-0.19523 0.07757,-0.38247 0.21564,-0.5205l0,0c0.13131,-0.14517 0.32044,-0.22433 0.516,-0.216c0.19369,-0.00151 0.37977,0.07531 0.516,0.213l0,0z"/>
    <path fill="#000000" id="形状" d="m15.57076,16.971541l3.371,8.564l-1.068,0l-0.911,-2.4l-3.935,0l-0.912,2.4l-1.054,0l3.37,-8.564l1.139,0zm1.08,5.338l-1.619,-4.281l-0.048,0l-1.644,4.283l3.311,-0.002z"/>
    <polygon fill="#000000" points="20.827762603759766,16.803540959954262 20.827762603759766,25.53554131090641 19.880762100219727,25.53554131090641 19.880762100219727,16.803540959954262 " id="路径"/>
    <polygon fill="#000000" points="23.647762298583984,16.803540959954262 23.647762298583984,25.53554131090641 22.700761795043945,25.53554131090641 22.700761795043945,16.803540959954262 " id="路径"/>
    <path fill="#000000" id="形状" d="m33.13876,16.971541c0.71932,-0.04169 1.431,0.16599 2.015,0.588c0.52528,0.44551 0.80987,1.11252 0.768,1.8c0.00588,0.45552 -0.1343,0.90095 -0.4,1.271c-0.28541,0.38044 -0.69888,0.64472 -1.164,0.744l0,0.023c0.77058,0.12604 1.34373,0.78053 1.367,1.561l0.132,1.318c0.02358,0.45595 0.18231,0.89457 0.456,1.26l-1.063,0c-0.21279,-0.34381 -0.3327,-0.73696 -0.348,-1.141l-0.108,-1.139c-0.00636,-0.42675 -0.20473,-0.8279 -0.54,-1.092c-0.36767,-0.23339 -0.80063,-0.34242 -1.235,-0.311l-2.59,0l0,3.682l-0.983,0l0,-8.564l3.693,0zm-2.71,4.032l2.59,0c0.52137,0.03034 1.03629,-0.12758 1.451,-0.445c0.60361,-0.66069 0.60879,-1.67115 0.012,-2.338c-0.42657,-0.29886 -0.94371,-0.44025 -1.463,-0.4l-2.59,0l0,3.183z"/>
    <path fill="#000000" id="形状" d="m38.74376,17.203541c0.14565,0.12415 0.22544,0.30885 0.216,0.5c0.00284,0.19454 -0.07542,0.38149 -0.216,0.516c-0.29037,0.27068 -0.74063,0.27068 -1.031,0c-0.13595,-0.13642 -0.2085,-0.32359 -0.2,-0.516c-0.01449,-0.18867 0.05939,-0.37337 0.2,-0.5c0.29037,-0.27068 0.74063,-0.27068 1.031,0zm-0.038,2.131l0,6.2l-0.959,0l0,-6.2l0.959,0z"/>
    <path fill="#000000" id="形状" d="m45.15076,20.403541l0,-1.069l0.955,0l0,5.769c0,1.979 -0.948,2.975 -2.831,2.975c-0.67716,0.04795 -1.35133,-0.12771 -1.919,-0.5c-0.46578,-0.37409 -0.76367,-0.91806 -0.828,-1.512l0.959,0c0.04183,0.36738 0.23273,0.70145 0.528,0.924c0.37691,0.23257 0.81716,0.34132 1.259,0.311c1.247,0 1.871,-0.7 1.871,-2.062l0,-1.1c-0.38947,0.79044 -1.20636,1.27892 -2.087,1.248c-0.78314,0.03437 -1.53901,-0.29125 -2.052,-0.884c-0.51433,-0.61721 -0.77934,-1.4044 -0.743,-2.207c-0.03869,-0.80658 0.22642,-1.59835 0.743,-2.219c0.50247,-0.60927 1.26204,-0.94702 2.051,-0.912c0.88151,-0.03815 1.70255,0.44726 2.094,1.238l0,0zm-3.4,0.227c-0.35599,0.48072 -0.53285,1.07072 -0.5,1.668c-0.02707,0.56523 0.12862,1.12416 0.444,1.594c0.34965,0.47174 0.91386,0.73504 1.5,0.7c0.56215,0.02454 1.10342,-0.21521 1.463,-0.648c0.35103,-0.47368 0.52766,-1.05408 0.5,-1.643c0.03285,-0.59728 -0.144,-1.18728 -0.5,-1.668c-0.34631,-0.4463 -0.88764,-0.69683 -1.452,-0.672c-0.56399,-0.03047 -1.10665,0.21953 -1.45,0.668l-0.005,0.001z"/>
    <path fill="#000000" id="路径" d="m48.55976,16.803541l0,3.551c0.38307,-0.74291 1.1553,-1.2033 1.991,-1.187c0.62233,-0.04464 1.23256,0.18817 1.667,0.636c0.41506,0.51288 0.62082,1.16374 0.576,1.822l0,3.91l-0.959,0l0,-3.766c0.0274,-0.47847 -0.11732,-0.95095 -0.408,-1.332c-0.31275,-0.32322 -0.75103,-0.49379 -1.2,-0.467c-0.4642,-0.00727 -0.90445,0.20562 -1.187,0.574c-0.32885,0.41039 -0.4989,0.92549 -0.479,1.451l0,3.539l-0.955,0l0,-8.731l0.954,0z"/>
    <path fill-opacity="0" fill="#000000" id="路径" d="m55.92676,19.33454l1.535,0l0,0.8l-1.535,0l0,3.947c-0.01935,0.17476 0.02777,0.3504 0.132,0.492c0.12347,0.11337 0.28908,0.16931 0.456,0.154l0.791,0l0,0.8l-0.936,0c-0.40541,0.0383 -0.80642,-0.10872 -1.091,-0.4c-0.22237,-0.30476 -0.32874,-0.67884 -0.3,-1.055l0,-3.935l-1.246,0l0,-0.8l1.247,0l0,-1.611l0.947,-0.4l0,2.008z"/>
    <path fill="#000000" id="路径" d="m63.26976,21.103541l-0.936,0c-0.04776,-0.33048 -0.21891,-0.6306 -0.479,-0.84c-0.34096,-0.21176 -0.73941,-0.31207 -1.14,-0.287c-0.35291,-0.02443 -0.70488,0.05929 -1.009,0.24c-0.2455,0.12259 -0.40044,0.37359 -0.4,0.648c0,0.264 0.168,0.492 0.528,0.672c0.4172,0.16695 0.846,0.30331 1.283,0.408c0.55905,0.1102 1.09839,0.30369 1.6,0.574c0.46197,0.25553 0.74736,0.74308 0.74406,1.271c0,1.271 -0.87506,1.92 -2.62606,1.92c-1.631,0 -2.519,-0.721 -2.663,-2.146l0.934,0c0.03303,0.40409 0.2173,0.78085 0.516,1.055c0.35593,0.2146 0.76941,0.31413 1.184,0.285c1.1,0 1.667,-0.359 1.667,-1.055c-0.01577,-0.36118 -0.24799,-0.67713 -0.588,-0.8c-0.42851,-0.16767 -0.86953,-0.30142 -1.319,-0.4c-0.53723,-0.10367 -1.05508,-0.29023 -1.535,-0.553c-0.44785,-0.23539 -0.72256,-0.70527 -0.708,-1.211c-0.00854,-0.5112 0.25897,-0.98737 0.7,-1.246c0.50301,-0.33175 1.09805,-0.49591 1.7,-0.469c1.539,-0.003 2.383,0.634 2.547,1.934z"/>
    <path fill="#000000" id="形状" d="m72.40576,16.971541c0.71932,-0.04169 1.431,0.16599 2.015,0.588c0.52528,0.44551 0.80987,1.11252 0.768,1.8c0.00588,0.45552 -0.1343,0.90095 -0.4,1.271c-0.28541,0.38044 -0.69888,0.64472 -1.164,0.744l0,0.023c0.77058,0.12604 1.34373,0.78053 1.367,1.561l0.132,1.318c0.02358,0.45595 0.18231,0.89457 0.456,1.26l-1.067,0c-0.21279,-0.34381 -0.3327,-0.73696 -0.348,-1.141l-0.108,-1.139c-0.00636,-0.42675 -0.20473,-0.8279 -0.54,-1.092c-0.36767,-0.23339 -0.80063,-0.34242 -1.235,-0.311l-2.59,0l0,3.682l-0.986,0l0,-8.564l3.7,0zm-2.71,4.032l2.59,0c0.52137,0.03034 1.03629,-0.12758 1.451,-0.445c0.60361,-0.66069 0.60879,-1.67115 0.012,-2.338c-0.42657,-0.29886 -0.94371,-0.44025 -1.463,-0.4l-2.59,0l0,3.183z"/>
    <path fill="#000000" id="形状" d="m81.50576,20.174541c0.49958,0.74724 0.75147,1.63269 0.72,2.531l-4.89,0c0.00463,0.58688 0.2025,1.15588 0.563,1.619c0.35438,0.38989 0.86479,0.60052 1.391,0.574c0.44437,0.01788 0.88118,-0.11889 1.236,-0.387c0.29184,-0.26221 0.50743,-0.59838 0.624,-0.973l0.956,0c-0.12311,0.56293 -0.41636,1.07438 -0.84,1.465c-0.54851,0.4733 -1.25488,0.72315 -1.979,0.7c-0.80527,0.03167 -1.58451,-0.28842 -2.135,-0.877c-0.57241,-0.66416 -0.86461,-1.52461 -0.815,-2.4c-0.03102,-0.83367 0.24673,-1.64945 0.78,-2.291c0.51757,-0.64373 1.30967,-1.00398 2.135,-0.971c0.87211,-0.0567 1.71587,0.32138 2.254,1.01l0,0zm-3.562,0.336c-0.35279,0.40419 -0.55952,0.91521 -0.587,1.451l3.874,0c-0.12,-1.332 -0.78,-1.99 -1.955,-1.99c-0.50011,-0.01988 -0.98449,0.17694 -1.329,0.54l-0.003,-0.001z"/>
    <path fill="#000000" id="路径" d="m88.09676,21.103541l-0.936,0c-0.04776,-0.33048 -0.21891,-0.6306 -0.479,-0.84c-0.34096,-0.21176 -0.73941,-0.31207 -1.14,-0.287c-0.35203,-0.02462 -0.70323,0.05839 -1.007,0.238c-0.2455,0.12259 -0.40044,0.37359 -0.4,0.648c0,0.264 0.168,0.492 0.528,0.672c0.4172,0.16695 0.846,0.30331 1.283,0.408c0.55905,0.1102 1.09839,0.30369 1.6,0.574c0.46197,0.25553 0.74736,0.74308 0.74406,1.271c0,1.271 -0.87506,1.92 -2.62606,1.92c-1.631,0 -2.519,-0.721 -2.663,-2.146l0.936,0c0.03303,0.40409 0.2173,0.78085 0.516,1.055c0.35684,0.2161 0.77186,0.31637 1.188,0.287c1.1,0 1.667,-0.359 1.667,-1.055c-0.01577,-0.36118 -0.24799,-0.67713 -0.588,-0.8c-0.42852,-0.16764 -0.86954,-0.30139 -1.319,-0.4c-0.53728,-0.1035 -1.05515,-0.29007 -1.535,-0.553c-0.44785,-0.23539 -0.72256,-0.70527 -0.708,-1.211c-0.00854,-0.5112 0.25897,-0.98737 0.7,-1.246c0.50301,-0.33175 1.09805,-0.49591 1.7,-0.469c1.532,-0.003 2.371,0.634 2.539,1.934z"/>
    <path fill="#000000" id="形状" d="m94.22876,20.174541c0.49958,0.74724 0.75147,1.63269 0.72,2.531l-4.893,0c0.00463,0.58688 0.2025,1.15588 0.563,1.619c0.35347,0.38878 0.86216,0.5993 1.387,0.574c0.44572,0.01882 0.88411,-0.118 1.24,-0.387c0.29184,-0.26221 0.50743,-0.59838 0.624,-0.973l0.959,0c-0.12311,0.56293 -0.41636,1.07438 -0.84,1.465c-0.54954,0.47425 -1.25752,0.72417 -1.983,0.7c-0.80527,0.03167 -1.58451,-0.28842 -2.135,-0.877c-0.57241,-0.66416 -0.86461,-1.52461 -0.815,-2.4c-0.03102,-0.83367 0.24673,-1.64945 0.78,-2.291c0.51757,-0.64373 1.30967,-1.00398 2.135,-0.971c0.87349,-0.05806 1.71905,0.32016 2.258,1.01zm-3.562,0.336c-0.35279,0.40419 -0.55952,0.91521 -0.587,1.451l3.874,0c-0.12,-1.332 -0.78,-1.99 -1.955,-1.99c-0.50114,-0.02075 -0.98679,0.17613 -1.332,0.54l0,-0.001z"/>
    <path fill="#000000" id="路径" d="m99.65376,19.311541l0,0.959c-0.29931,-0.09013 -0.61042,-0.13496 -0.923,-0.133c-0.48442,-0.00203 -0.93822,0.23667 -1.211,0.637c-0.33509,0.41702 -0.50964,0.94032 -0.492,1.475l0,3.287l-0.947,0l0,-6.2l0.947,0l0,1.075c0.14404,-0.33215 0.36638,-0.62449 0.648,-0.852c0.316,-0.26337 0.71567,-0.40523 1.127,-0.4c0.29089,-0.00566 0.58006,0.04598 0.851,0.152l0,0z"/>
    <polygon fill="#000000" points="100.8317642211914,19.334541097283363 102.60676574707031,24.334541097283363 104.38175964355469,19.334541097283363 105.43775939941406,19.334541097283363 103.08676147460938,25.534541860222816 102.11476135253906,25.534541860222816 99.77676391601562,19.334541097283363 " id="路径"/>
    <path fill="#000000" id="形状" d="m111.05276,20.174541c0.4994,0.74733 0.75127,1.63272 0.72,2.531l-4.894,0c0.00536,0.58692 0.20354,1.15579 0.564,1.619c0.35421,0.39013 0.86474,0.6008 1.391,0.574c0.44355,0.01879 0.87992,-0.11653 1.235,-0.383c0.29199,-0.26208 0.50762,-0.5983 0.624,-0.973l0.959,0c-0.12292,0.563 -0.41621,1.07451 -0.84,1.465c-0.54846,0.47339 -1.25487,0.72325 -1.979,0.7c-0.80527,0.03167 -1.58451,-0.28842 -2.135,-0.877c-0.57241,-0.66416 -0.86461,-1.52461 -0.815,-2.4c-0.0312,-0.83369 0.24656,-1.64955 0.78,-2.291c0.51757,-0.64373 1.30967,-1.00398 2.135,-0.971c0.87171,-0.0578 1.71569,0.31872 2.255,1.006zm-3.562,0.336c-0.35285,0.40415 -0.55959,0.91519 -0.587,1.451l3.874,0c-0.12,-1.332 -0.779,-1.99 -1.955,-1.99c-0.50146,-0.02091 -0.98748,0.17597 -1.333,0.54l0.001,-0.001z"/>
    <path fill="#000000" id="形状" d="m118.44376,16.803541l0,8.732l-0.9,0l0,-1.024c-0.39345,0.76747 -1.2007,1.23257 -2.062,1.188c-0.82554,0.03657 -1.61734,-0.33043 -2.123,-0.984c-0.48817,-0.66472 -0.73509,-1.47603 -0.7,-2.3c-0.03211,-0.80938 0.21504,-1.6052 0.7,-2.254c0.47976,-0.66021 1.25867,-1.03577 2.074,-1c0.88154,-0.00674 1.68476,0.50511 2.051,1.307l0,-3.665l0.96,0zm-4.338,3.875c-0.33523,0.51334 -0.49618,1.12102 -0.459,1.733c-0.03506,0.61949 0.11985,1.23492 0.444,1.764c0.34416,0.48752 0.91517,0.76339 1.511,0.73c0.57472,0.02388 1.12188,-0.24725 1.451,-0.719c0.32265,-0.5032 0.48191,-1.09381 0.456,-1.691l0,-0.114c0.0253,-0.62485 -0.15605,-1.24061 -0.516,-1.752c-0.31354,-0.43336 -0.82026,-0.68466 -1.355,-0.672c-0.60064,-0.03895 -1.1792,0.23333 -1.532,0.721l0,0z"/>
    <path fill="#000000" id="路径" d="m121.29076,24.324541c0.28775,0.28813 0.28775,0.75487 0,1.043c-0.13622,0.13795 -0.32213,0.21541 -0.516,0.215c-0.19531,0.00803 -0.38417,-0.07067 -0.516,-0.215c-0.13807,-0.13803 -0.21564,-0.32527 -0.21564,-0.5205c0,-0.19523 0.07757,-0.38247 0.21564,-0.5205l0,0c0.13104,-0.14565 0.32025,-0.22522 0.516,-0.217c0.19401,-0.00109 0.38017,0.07647 0.516,0.215l0,0z"/>
    <path fill="#000000" id="形状" d="m170.66976,15.867541l0,3.18l0.707,0l0,0.856l-2.83,0l0,0.612c0,0.371 -0.012,0.73 -0.023,1.078l2.3,0l0,5.1l-0.852,0l0,-4.282l-1.5,0c-0.04958,1.42729 -0.38343,2.83034 -0.982,4.127l-0.648,-0.576c0.65799,-1.74059 0.94809,-3.59867 0.852,-5.457l0,-4.394l0.852,0l0,2.939l1.283,0l0,-3.18l0.841,-0.003zm2.182,5.482c0.03813,1.84149 -0.36005,3.66586 -1.162,5.324l-0.6,-0.635c0.67454,-1.46931 1.00656,-3.07264 0.971,-4.689l0,-4.761c1.72796,0.0006 3.44652,-0.25415 5.1,-0.756l0.432,0.779c-1.545,0.42807 -3.1356,0.67011 -4.738,0.721l0,1.879l4.439,0l0,0.73c-0.21552,1.50027 -0.75168,2.93651 -1.572,4.211c0.56591,0.76872 1.30529,1.39298 2.158,1.822l-0.432,0.756c-0.8826,-0.45135 -1.65281,-1.09479 -2.254,-1.883c-0.664,0.77338 -1.46509,1.41752 -2.363,1.9l-0.42,-0.768c0.86999,-0.47058 1.64322,-1.10131 2.279,-1.859c-0.73483,-1.25968 -1.22319,-2.64771 -1.439,-4.09l-0.4,0l0.001,1.319zm2.363,2.039c0.62716,-1.02833 1.04704,-2.16943 1.236,-3.359l-2.424,0c0.21713,1.17543 0.61804,2.30932 1.188,3.36l0,-0.001z"/>
    <path fill="#000000" id="形状" d="m181.79476,26.685541l-0.865,0l0,-6.224c-0.40928,1.2241 -0.99912,2.38019 -1.75,3.43l-0.385,-0.971c0.98362,-1.16908 1.70364,-2.53648 2.111,-4.009l-1.859,0l0,-0.828l1.883,0l0,-2.335l0.865,0l0,2.338l1.582,0l0,0.825l-1.582,0l0,0.684c0.63971,0.62073 1.24781,1.27322 1.822,1.955l-0.492,0.732c-0.51533,-0.744 -0.95866,-1.344 -1.33,-1.8l0,6.203zm2.35,-9.391l-0.479,0l0,-0.828l5.4,0l0,0.816c-0.27864,2.04581 -0.9725,4.01307 -2.039,5.781c0.8066,1.12537 1.78523,2.11682 2.9,2.938l-0.588,0.7c-1.07253,-0.82767 -2.02143,-1.80418 -2.818,-2.9c-0.84486,1.1414 -1.88896,2.12079 -3.082,2.891l-0.553,-0.7c1.21186,-0.79012 2.26921,-1.79494 3.12,-2.965c-1.07337,-1.73269 -1.71185,-3.69924 -1.861,-5.732l0,-0.001zm0.84,0c0.11272,1.75127 0.63434,3.45175 1.523,4.965c0.89051,-1.52708 1.47315,-3.21386 1.715,-4.965l-3.238,0z"/>
    <path fill="#000000" id="形状" d="m192.48576,22.803541c-0.10751,1.36459 -0.4866,2.69395 -1.115,3.91l-0.6,-0.625c0.67893,-1.3457 1.02464,-2.83482 1.008,-4.342l0,-4.979c1.17671,-0.09441 2.32044,-0.43511 3.357,-1l0.576,0.66c-0.98978,0.50792 -2.06164,0.83666 -3.166,0.971l0,1.393l3.07,0l0,4.012l-3.13,0zm0.061,-1.057c0,0.084 -0.012,0.168 -0.012,0.264l2.291,0l0,-2.375l-2.279,0l0,2.111zm4.881,0.313c0.0708,1.59989 -0.20694,3.19606 -0.814,4.678l-0.779,-0.385c0.58617,-1.35298 0.86421,-2.81936 0.814,-4.293l0,-5.424c1.47363,-0.02528 2.9314,-0.30892 4.307,-0.838l0.432,0.754c-1.27291,0.4744 -2.61351,0.74212 -3.971,0.793l0.012,2.1l4.377,0l0,0.828l-1.355,0l0,6.465l-0.852,0l0,-6.468l-2.172,0l0.001,1.79z"/>
    <path fill="#000000" id="形状" d="m206.54876,24.142541l0,2.569l-0.814,0l0,-6.274c-0.68509,0.85301 -1.46099,1.62891 -2.314,2.314l-0.564,-0.73c1.43836,-1.11521 2.63007,-2.51632 3.5,-4.115l-3.178,0l0,-0.84l3.574,0c0.20143,-0.45656 0.37737,-0.92394 0.527,-1.4l0.875,0.107c-0.143,0.443 -0.287,0.877 -0.455,1.3l5.961,0l0,0.84l-6.32,0c-0.23413,0.47816 -0.49418,0.94319 -0.779,1.393l5.564,0l0,6.477c0,0.586 -0.336,0.887 -1.008,0.91l-1.342,0l-0.215,-0.791c0.455,0.023 0.887,0.049 1.283,0.049c0.31133,0 0.467,-0.14467 0.467,-0.434l0,-1.37l-4.762,-0.005zm0,-2.781l4.757,0l0,-1.308l-4.762,0l0.005,1.308zm0,0.756l0,1.271l4.757,0l0,-1.271l-4.757,0z"/>
    <text xml:space="preserve" text-anchor="start" font-family="Helvetica, Arial, sans-serif" font-size="12" id="svg_7" y="25.372967" x="125.864366" fill-opacity="null" stroke-opacity="null" stroke-width="0" fill="#000000">安逸服</text>
    <text xml:space="preserve" text-anchor="start" font-family="Helvetica, Arial, sans-serif" font-size="12" id="svg_8" y="9.583502" x="178.293486" fill-opacity="null" stroke-opacity="null" stroke-width="0" fill="#000000">Service</text>
    <path fill="#000000" id="svg_11" d="m96.544978,1.427541c0.49576,0.42245 0.77005,1.04918 0.744,1.7c0.05171,0.89198 -0.53481,1.69593 -1.4,1.919c0.44996,0.11893 0.85205,0.3743 1.151,0.731c0.29387,0.35229 0.44767,0.8005 0.432,1.259c0.02182,0.72456 -0.27625,1.42201 -0.815,1.907c-0.59577,0.52009 -1.36892,0.79082 -2.159,0.756c-0.71572,0.02747 -1.41899,-0.19294 -1.991,-0.624c-0.6349,-0.55466 -1.00545,-1.35207 -1.02,-2.195l1,0c-0.01311,0.58569 0.23277,1.14734 0.672,1.535c0.84763,0.62097 2.00887,0.58636 2.818,-0.084c0.33784,-0.33084 0.52448,-0.78623 0.516,-1.259c0.02567,-0.45542 -0.15855,-0.89754 -0.5,-1.2c-0.39741,-0.30468 -0.89243,-0.45369 -1.392,-0.419l-0.7,0l0,-0.764l0.66,0c0.46766,0.03039 0.93089,-0.10642 1.307,-0.386c0.30921,-0.28503 0.47528,-0.69305 0.453,-1.113c0.02103,-0.41833 -0.14061,-0.82517 -0.443,-1.115c-0.36672,-0.30124 -0.83445,-0.45143 -1.308,-0.42c-0.49258,-0.03476 -0.97853,0.12951 -1.349,0.456c-0.35385,0.35559 -0.56304,0.82992 -0.587,1.331l-0.972,0c0.03672,-0.74123 0.36445,-1.43803 0.912,-1.939c0.54328,-0.48225 1.25333,-0.7334 1.979,-0.7c0.71706,-0.03539 1.42328,0.18584 1.992,0.624l0,0z"/>
    <path fill="#000000" id="svg_13" d="m75.004978,1.487541c0.50917,0.46185 0.78994,1.12392 0.768,1.811c-0.00821,0.75516 -0.30939,1.47761 -0.84,2.015c-0.54704,0.51439 -1.14134,0.9761 -1.775,1.379c-0.82246,0.43247 -1.47964,1.12373 -1.87,1.967l4.5,0l0,0.875l-5.709,0c-0.00073,-0.79017 0.30255,-1.55034 0.847,-2.123c0.55864,-0.5779 1.18248,-1.08899 1.859,-1.523c0.47587,-0.31908 0.92532,-0.67589 1.344,-1.067c0.4092,-0.40767 0.64527,-0.95755 0.659,-1.535c0.02857,-0.45248 -0.14202,-0.89485 -0.467,-1.211c-0.36494,-0.30486 -0.83226,-0.45932 -1.307,-0.432c-0.52264,-0.03382 -1.02875,0.19028 -1.355,0.6c-0.37269,0.49154 -0.5597,1.09896 -0.528,1.715l-0.983,0c-0.04156,-0.83866 0.24542,-1.6605 0.8,-2.291c0.54079,-0.58006 1.30758,-0.89554 2.1,-0.864c0.71528,-0.02714 1.41436,0.2172 1.957,0.684l0,0z"/>
    <path fill="#000000" id="svg_14" d="m82.443978,2.159541c0.49956,0.95198 0.73571,2.02015 0.684,3.094c0.05171,1.07385 -0.18444,2.14202 -0.684,3.094c-0.46969,0.83702 -1.3547,1.35523 -2.3145,1.35523c-0.95979,0 -1.84481,-0.51821 -2.3145,-1.35523c-0.49956,-0.95198 -0.7357,-2.02015 -0.684,-3.094c-0.0517,-1.07385 0.18444,-2.14202 0.684,-3.094c0.46969,-0.83702 1.35471,-1.35523 2.3145,-1.35523c0.9598,0 1.84481,0.51821 2.3145,1.35523l0,0zm-3.97,0.72c-0.27015,0.76152 -0.39234,1.56763 -0.36,2.375c-0.03018,0.80725 0.09195,1.61296 0.36,2.375c0.21703,0.73309 0.89047,1.23605 1.655,1.23605c0.76454,0 1.43798,-0.50296 1.655,-1.23605c0.27362,-0.7609 0.4002,-1.56686 0.373,-2.375c0.02942,-0.80828 -0.09722,-1.61465 -0.373,-2.375c-0.21702,-0.73309 -0.89046,-1.23605 -1.655,-1.23605c-0.76453,0 -1.43797,0.50296 -1.655,1.23605l0,0z"/>
    <path fill="#000000" id="svg_15" d="m89.446978,1.487541c0.50917,0.46185 0.78994,1.12392 0.768,1.811c-0.00822,0.75516 -0.30939,1.47761 -0.84,2.015c-0.54704,0.51439 -1.14134,0.9761 -1.775,1.379c-0.82246,0.43247 -1.47964,1.12373 -1.87,1.967l4.5,0l0,0.875l-5.709,0c-0.00073,-0.79017 0.30255,-1.55034 0.847,-2.123c0.55864,-0.5779 1.18248,-1.08899 1.859,-1.523c0.47587,-0.31908 0.92532,-0.67589 1.344,-1.067c0.4092,-0.40767 0.64527,-0.95755 0.659,-1.535c0.02857,-0.45248 -0.14202,-0.89485 -0.467,-1.211c-0.36494,-0.30486 -0.83226,-0.45932 -1.307,-0.432c-0.52264,-0.03382 -1.02876,0.19028 -1.355,0.6c-0.37269,0.49154 -0.5597,1.09896 -0.528,1.715l-0.983,0c-0.04156,-0.83866 0.24542,-1.6605 0.8,-2.291c0.54079,-0.58006 1.30759,-0.89554 2.1,-0.864c0.71528,-0.02714 1.41436,0.2172 1.957,0.684l0,0z"/>
   </g>
   <text xml:space="preserve" text-anchor="start" font-family="Helvetica, Arial, sans-serif" font-size="12" id="svg_5" y="9.242861" x="137.532405" stroke-width="0" fill="#000000">AnYiFu</text>
  </g>
 </g>
</svg>
