<svg width="92" height="25" xmlns="http://www.w3.org/2000/svg" preserveAspectRatio="xMidYMid meet">
    <desc>Created with Snap</desc>
    <g>
        <title>background</title>
        <rect fill="none" id="canvas_background" height="27" width="94" y="-1" x="-1"/>
    </g>
    <g>
        <title>Layer 1</title>
        <defs>
            <mask id="mask">
                <rect id="showAll" fill="white" x="215" y="79" width="168" height="160"/>
                <rect id="hideNameBg" fill="black" x="0" y="0" width="0" height="0" stroke-width="2" stroke="black"/>
                <rect id="hideSloganBg" fill="black" x="0" y="0" width="0" height="0" stroke-width="2" stroke="black"/>
            </mask>
        </defs>
        <path fill="none" d="m-4976.00854,-3783.729864l12000,0l0,8840l-12000,0c0,-2946.66667 0,-5893.33333 0,-8840z" id="svg_29" opacity="0.13" stroke="#ffffff" stroke-opacity="0.15"/>
        <g class="icon" id="svg_30" transform="matrix(0.1431350459005881,0,0,0.1431350459005881,3.3152407207273007,24.589502445648446) ">
            <svg height="149" width="59" x="-0.152062" y="-166.723985" preserveAspectRatio="none" id="svg_1">
                <desc>Created with Snap</desc>
                <svg viewBox="215 79 59 149" id="svg_5">
                    <path d="m273.954,95.682l0,37.821l-57.474,94.063c-0.95,-2.23 -1.48,-4.726 -1.48,-7.378l0,-122.37c0,-13.724 14.2,-22.817 26.656,-17.062l32.298,14.926z" id="svg_6" fill="#00E2EE"/>
                </svg>
            </svg>
            <svg height="105" width="57" x="0.847938" y="-111.723985" preserveAspectRatio="none" id="svg_8">
                <desc>Created with Snap</desc>
                <svg viewBox="216 134 57 105" id="svg_12">
                    <path d="m273.954,133.504l0,88.821l-32.298,14.926c-10.04,4.632 -21.216,-0.39 -25.176,-9.686l57.474,-94.061z" id="svg_13" fill="#00CEED"/>
                </svg>
            </svg>
            <svg height="118" width="43" x="57.847938" y="-141.723985" preserveAspectRatio="none" id="svg_15">
                <desc>Created with Snap</desc>
                <svg viewBox="274 104 43 118" id="svg_19">
                    <path id="svg_20" fill="#06BBF1" d="m317.18,168.782l-29.259,46.103l-0.725,1.073l-13.243,6.366l0,-88.821l18.02,-29.492l2.838,1.31l22.369,63.461z"/>
                </svg>
            </svg>
            <svg height="63" width="48" x="78.847938" y="-140.723985" preserveAspectRatio="none" id="svg_22">
                <desc>Created with Snap</desc>
                <svg viewBox="295 105 48 63" id="svg_26">
                    <path id="svg_27" fill="#2693EA" d="m343.01,128.123l-25.83,40.66l-22.369,-63.463l47.95,22.148l0.249,0.655z"/>
                </svg>
            </svg>
            <svg height="68" width="36" x="100.847938" y="-118.723985" preserveAspectRatio="none" id="svg_31">
                <desc>Created with Snap</desc>
                <svg viewBox="317 128 36 68" id="svg_35">
                    <path id="svg_36" fill="#4C69E4" d="m353.33,154.886l-26.516,41.221l-9.634,-27.324l25.83,-40.66l10.32,26.763z"/>
                </svg>
            </svg>
            <svg height="43" width="37" x="109.847938" y="-91.723985" preserveAspectRatio="none" id="svg_38">
                <desc>Created with Snap</desc>
                <svg viewBox="327 155 37 43" id="svg_42">
                    <path id="svg_43" fill="#9561E8" d="m363.4,181.01l-35.931,16.594l-0.235,-0.31l-0.42,-1.186l26.515,-41.222l10.071,26.124z"/>
                </svg>
            </svg>
            <svg height="44" width="32" x="135.847938" y="-108.723985" preserveAspectRatio="none" id="svg_50">
                <desc>Created with Snap</desc>
                <svg viewBox="353 138 32 44" id="svg_54">
                    <path d="m374.093,176.066l-10.693,4.945l-10.07,-26.125l11.177,-17.375l9.586,4.43c14.544,6.722 14.544,27.403 0,34.125" id="svg_55" fill="#E058EB"/>
                </svg>
            </svg>
        </g>
        <g id="icon_name_and_slogan_gap" transform="matrix(1,0,0,1,3.8,18.2) "/>
        <g class="name_and_slogan" id="name_and_slogan_id" transform="matrix(0.3123148280684384,0,0,0.3123148280684384,-2.9693534197523306,122.90574197003437) ">
            <g class="name" id="svg_45">
                <g id="nameDefaultGroup">
                    <path d="m133.795935,-359.660756l-10.7,0l-2.2,6.7l-8,0l10.9,-29.4l9.2,0l11.2,29.4l-8.3,0l-2.1,-6.7m-1.7,-5l-3.6,-11.3l-3.7,11.3l7.3,0m33.6,11.8l0,-16.5l-7.5,0l0,16.5l-6.9,0l0,-21.9l21.2,0l0,21.9l-6.8,0m13.5,-29.5l8.1,0l6.7,10.4l6.4,-10.4l8.2,0l-11,18.1l0,11.4l-7.3,0l0,-11.3l-11.1,-18.2m36.2,4.5l0,-6.3l7,0l0,6.3l-7,0m0,25l0,-22l7,0l0,22l-7,0m23.5,-23.7l0,6.5l11.8,0l0,5.9l-11.8,0l0,11.3l-7.5,0l0,-29.6l21.1,0l0,5.9l-13.6,0m22.3,23.7l0,-22.1l7,0l0,16.8l7.2,0l0,-16.8l7,0l0,22.1l-21.2,0" fill="#0b0560" id="svg_46"/>
                </g>
            </g>
            <g class="slogan" id="svg_47">
                <g id="sloganDefaultGroup">
                    <path d="m114.995935,-326.660756l0,3.1q0,0.3 0,0.6q0,0.2 -0.1,0.3q-0.1,0.2 -0.3,0.3q-0.2,0.1 -0.5,0.1l0,0l-0.8,0.1l-0.4,-0.9l0.7,-0.1q0.1,0 0.2,-0.1q0.1,0 0.2,-0.1q0,-0.1 0,-0.2q0.1,-0.2 0.1,-0.4l0,0l0,-2.7l-2.7,0l0,-1l2.7,0l0,-1.5l-2.9,0l0,-0.9l1.7,0q-0.1,-0.6 -0.2,-1.2q-0.1,-0.6 -0.2,-1l0,0l-1,0l0,-1l2.7,0q-0.1,-0.1 -0.1,-0.3q-0.1,-0.2 -0.1,-0.4q-0.1,-0.2 -0.1,-0.4q-0.1,-0.1 -0.1,-0.2l0,0l0.9,-0.2q0,0.1 0.1,0.3q0,0.1 0.1,0.4q0.1,0.2 0.1,0.5q0.1,0.2 0.1,0.3l0,0l2.4,0l0,1l-1,0q-0.1,0.2 -0.1,0.5q-0.1,0.3 -0.1,0.6q-0.1,0.3 -0.1,0.6q-0.1,0.3 -0.2,0.5l0,0l1.8,0l0,0.9l-2.8,0l0,1.5l2.4,0l0,1l-2.4,0m8.6,-2.3l-1.6,0l0,6.9l-1,0l0,-6.9l-1.7,0l0,1.4q0,0.6 0,1.2q-0.1,0.7 -0.2,1.3q-0.2,0.7 -0.5,1.5q-0.3,0.7 -0.9,1.7l0,0l-1,-0.5q0.5,-0.7 0.9,-1.4q0.3,-0.6 0.4,-1.2q0.2,-0.6 0.3,-1.3q0,-0.6 0,-1.3l0,0l0,-5.6l0.1,0q0.3,0 0.8,-0.1q0.6,-0.1 1.2,-0.2q0.7,-0.1 1.3,-0.3q0.7,-0.2 1.1,-0.4l0,0l0.4,0.9q-0.5,0.2 -1.1,0.4q-0.5,0.1 -1.1,0.2q-0.5,0.2 -1,0.2q-0.4,0.1 -0.7,0.1l0,0l0,2.5l4.3,0l0,0.9m-10.2,-3.3q0.1,0.2 0.1,0.5q0.1,0.3 0.1,0.6q0.1,0.3 0.1,0.6q0.1,0.3 0.1,0.5l0,0l1.3,0q0.2,-0.5 0.3,-1.1q0.1,-0.6 0.2,-1.1l0,0l-2.2,0m3.3,8.7q-0.3,-0.7 -0.6,-1.3q-0.4,-0.6 -0.6,-1l0,0l0.7,-0.4q0.1,0.2 0.3,0.4q0.1,0.3 0.3,0.6q0.2,0.3 0.4,0.6q0.1,0.3 0.3,0.6l0,0l-0.8,0.5m-3.3,-2.3q-0.2,0.3 -0.4,0.8q-0.2,0.4 -0.4,0.8q-0.3,0.4 -0.5,0.8q-0.3,0.4 -0.5,0.7l0,0l-0.8,-0.4q0.2,-0.3 0.4,-0.7q0.3,-0.4 0.6,-0.8q0.2,-0.4 0.4,-0.8q0.2,-0.4 0.4,-0.8l0,0l0.8,0.4m29.1,-2.3l-12.4,0l0,-1.2l12.4,0l0,1.2m18.4,4.3q0.1,-0.4 0.3,-0.8q0.1,-0.5 0.1,-0.9l0,0l0.9,0.7q-0.1,0.5 -0.3,0.9q-0.1,0.5 -0.3,0.9l0,0q-0.1,0.3 -0.3,0.5q-0.1,0.2 -0.3,0.3q-0.2,0.1 -0.4,0.2q-0.2,0 -0.4,0l0,0q-0.3,0 -0.5,-0.1q-0.3,0 -0.5,-0.2q-0.2,-0.1 -0.5,-0.4q-0.2,-0.2 -0.5,-0.6l0,0q-0.6,-0.9 -1,-2.3q-0.4,-1.5 -0.6,-3.6l0,0l-2.8,0.3l-0.1,-1l2.8,-0.3q-0.1,-0.4 -0.1,-0.8q0,-0.4 -0.1,-0.8l0,0l-0.1,-2.7l1.1,0q0,0.2 0,0.5q0,0.4 0,0.8q0,0.4 0.1,0.7q0,0.4 0,0.7l0,0q0,0.4 0,0.8q0.1,0.4 0.1,0.7l0,0l4.8,-0.4l0.1,1l-4.8,0.4q0.3,2.1 0.7,3.4q0.4,1.3 0.8,1.9l0,0q0.3,0.5 0.6,0.6q0.2,0.2 0.5,0.2l0,0q0.2,0 0.4,-0.1q0.1,-0.2 0.3,-0.5l0,0m-6.4,-10.4q-0.3,0.8 -0.6,1.5q-0.3,0.7 -0.6,1.4l0,0l0,9.4l-1.1,0l0,-7.5q-0.4,0.6 -0.8,1.2q-0.4,0.5 -0.9,1.1l0,0l-0.7,-0.7q0.5,-0.7 1,-1.4q0.6,-0.8 1,-1.7q0.5,-0.8 0.9,-1.7q0.4,-0.9 0.7,-1.8l0,0l1.1,0.2m6.2,3.1q-0.2,-0.2 -0.5,-0.5q-0.3,-0.4 -0.7,-0.7q-0.3,-0.3 -0.6,-0.5q-0.3,-0.3 -0.5,-0.5l0,0l0.6,-0.7q0.2,0.2 0.5,0.4q0.3,0.3 0.7,0.6q0.3,0.3 0.6,0.6q0.3,0.2 0.5,0.4l0,0l-0.6,0.9m16,-1.1q0.1,1.5 0.6,2.8q0.4,1.3 1.1,2.4q0.7,1.2 1.7,2.2q1,1 2.3,1.9l0,0l-0.8,1q-2,-1.6 -3.4,-3.5q-1.3,-1.8 -1.9,-3.9l0,0q-0.6,2.1 -1.9,3.8q-1.3,1.8 -3.4,3.5l0,0l-0.8,-0.9q1.5,-1.1 2.5,-2.2q1,-1.1 1.7,-2.3q0.6,-1.2 0.9,-2.6q0.3,-1.4 0.4,-3l0,0q0,-0.1 0,-0.3q0,-0.2 0,-0.5q0,-0.2 0,-0.4q0,-0.1 0,-0.2l0,0l1.1,0.1q0,0 0,0.2q0,0.3 -0.1,0.5q0,0.3 0,0.6q0,0.2 0,0.4l0,0q0,0.1 0,0.2q0,0.1 0,0.2l0,0m25.7,6.2l-1.3,0l0,1.8l-4.3,0l0,0.7q0,0.4 -0.1,0.6q0,0.3 -0.2,0.5q-0.2,0.1 -0.6,0.2q-0.3,0.1 -0.8,0.1l0,0l-0.9,0.1l-0.3,-1q0.1,0 0.3,0l0,0q0.2,0 0.4,0q0.3,0 0.5,-0.1l0,0q0.3,0 0.4,0q0.1,0 0.2,-0.1q0.1,-0.1 0.1,-0.2q0,-0.1 0,-0.4l0,0l0,-0.4l-4.7,0l0,-0.8l4.7,0l0,-1l-5.7,0l0,-0.8l5.7,0l0,-0.9l-4.7,0l0,-0.8l4.7,0l0,-0.8l-4,0l0,-2.5l4,0l0,-0.9l-5.6,0l0,-0.9l5.6,0l0,-1l1,0.1l0,0.9l5.5,0l0,0.9l-5.5,0l0,0.9l4.1,0l0,2.5l-4.1,0l0,0.8l4.3,0l0,1.7l1.3,0l0,0.8m-6.6,-4.1l0,-1l-3,0l0,1l3,0m1,-1l0,1l3,0l0,-1l-3,0m0,4.3l3.4,0l0,-0.9l-3.4,0l0,0.9m3.4,0.8l-3.4,0l0,1l3.4,0l0,-1m11.2,-6.5q-0.3,0.5 -0.6,0.9q-0.4,0.4 -0.7,0.8l0,0l-0.8,-0.6q0.7,-0.7 1.3,-1.5q0.5,-0.9 0.9,-1.7l0,0l1.1,0.2q-0.2,0.2 -0.3,0.5q-0.1,0.3 -0.3,0.5l0,0l3.5,0l0,0.9l-2.3,0q0.2,0.4 0.3,0.7q0.2,0.3 0.3,0.5l0,0l-0.9,0.4q-0.1,-0.3 -0.3,-0.8q-0.2,-0.4 -0.4,-0.8l0,0l-0.8,0m9.9,-0.9l0,0.9l-2.2,0q0.2,0.3 0.3,0.7q0.2,0.3 0.3,0.5l0,0l-0.8,0.4q-0.1,-0.3 -0.4,-0.7q-0.2,-0.5 -0.5,-0.9l0,0l-1.2,0q-0.2,0.3 -0.3,0.5q-0.2,0.3 -0.3,0.5l0,0l-1,-0.4q0.3,-0.4 0.5,-0.7q0.2,-0.3 0.4,-0.6q0.2,-0.4 0.3,-0.7q0.1,-0.3 0.3,-0.7l0,0l1.1,0.1q-0.2,0.3 -0.3,0.6q-0.1,0.3 -0.3,0.5l0,0l4.1,0m-5.9,1.6q0.1,0.2 0.2,0.5q0.1,0.3 0.2,0.6l0,0l5,0l0,2l-1.1,0l0,-1.2l-8.8,0l0,1.2l-1.1,0l0,-2l5.1,0q-0.1,-0.3 -0.2,-0.5q-0.1,-0.3 -0.2,-0.4l0,0l0.9,-0.2m-3.3,6.6l7.6,0l0,3.4l-1,0l0,-0.6l-6.6,0l0,0.6l-1.1,0l0,-7l8.4,0l0,2.6l-7.3,0l0,1m0,-2.8l0,1l6.3,0l0,-1l-6.3,0m0,3.6l0,1.2l6.6,0l0,-1.2l-6.6,0m29.5,1.1l0,0.9l-8.6,0l0,-0.9l3.8,0l0,-1.7l-3,0l0,-0.9l3,0l0,-1.6l-2.8,0l0,-6.2l6.6,0l0,6.2l-2.8,0l0,1.6l3.2,0l0,0.9l-3.2,0l0,1.7l3.8,0m-8.1,-0.7q-0.4,0.1 -1,0.3q-0.6,0.1 -1.2,0.2q-0.7,0.2 -1.3,0.3q-0.6,0.1 -1,0.2l0,0l-0.1,-1q0.4,0 0.9,-0.1q0.5,-0.2 1.1,-0.3l0,0l0,-3.8l-1.6,0l0,-1l1.6,0l0,-3.1l-1.7,0l0,-1l4.2,0l0,1l-1.5,0l0,3.1l1.5,0l0,1l-1.5,0l0,3.6q0.4,-0.1 0.8,-0.2q0.4,-0.1 0.7,-0.2l0,0l0.1,1m1.5,-8.8l0,1.7l1.8,0l0,-1.7l-1.8,0m4.6,0l-1.8,0l0,1.7l1.8,0l0,-1.7m-2.8,4.4l0,-1.7l-1.8,0l0,1.7l1.8,0m2.8,0l0,-1.7l-1.8,0l0,1.7l1.8,0m20,1.8q-0.8,0.1 -1.7,0.1q-0.9,0 -1.9,0l0,0l0,2.9q0,0.4 -0.1,0.7q0,0.3 -0.2,0.4q-0.2,0.2 -0.6,0.3q-0.4,0 -0.9,0.1l0,0l-0.8,0.1l-0.4,-1.1l1,0q0.3,-0.1 0.5,-0.1q0.2,-0.1 0.3,-0.1q0.1,-0.1 0.1,-0.3q0.1,-0.1 0.1,-0.3l0,0l0,-2.5q-1,0 -1.8,0q-0.9,0.1 -1.7,0.1l0,0q-0.2,0 -0.6,0.1q-0.4,0 -0.7,0l0,0l-0.2,-1q0.2,0 0.5,-0.1q0.4,-0.1 0.5,-0.1l0,0q1,-0.4 2,-0.9q1,-0.5 2,-1.2l0,0q-0.5,0.1 -1.1,0.1q-0.5,0 -1,0q-0.5,0 -0.9,0q-0.4,0 -0.6,0.1l0,0q-0.1,0 -0.4,0q-0.2,0 -0.6,0l0,0l-0.2,-0.9q0.5,-0.1 0.7,-0.1q0.2,-0.1 0.4,-0.2l0,0q0.6,-0.3 1.3,-0.9q0.8,-0.5 1.4,-1.1l0,0q-1.1,0.1 -2.1,0.1q-1.1,0.1 -1.9,0.1l0,0l-0.2,-1q0.7,0 1.6,-0.1q0.9,0 1.9,-0.1q0.9,0 1.9,-0.1q1,0 1.9,-0.1q1,-0.1 1.8,-0.2q0.9,-0.1 1.6,-0.1l0,0l0.1,1q-0.5,0 -1.2,0.1q-0.7,0.1 -1.4,0.1q-0.8,0.1 -1.6,0.1q-0.8,0.1 -1.6,0.1l0,0l0.3,0.4q-0.7,0.6 -1.2,1.1q-0.6,0.4 -1.2,0.8l0,0q0.2,0 0.6,0q0.4,0 1,0q0.5,-0.1 1,-0.1q0.6,0 1,0l0,0q0.5,-0.5 1.1,-0.9q0.5,-0.5 1,-1l0,0l0.7,0.8q-0.6,0.6 -1.4,1.2q-0.7,0.6 -1.4,1.1q-0.8,0.5 -1.6,1q-0.7,0.5 -1.4,0.8l0,0q0.5,0 1.2,0q0.7,0 1.4,-0.1q0.7,0 1.4,0q0.8,0 1.4,-0.1l0,0q-0.3,-0.3 -0.7,-0.7q-0.3,-0.3 -0.5,-0.5l0,0l0.7,-0.6q0.3,0.2 0.7,0.6q0.4,0.4 0.8,0.8q0.4,0.5 0.8,0.9q0.3,0.4 0.6,0.7l0,0l-0.8,0.8q-0.2,-0.4 -0.7,-1l0,0m-6.1,1.6q-0.5,0.3 -0.9,0.7q-0.5,0.3 -1.1,0.7q-0.5,0.3 -1,0.7q-0.6,0.3 -1,0.6l0,0l-0.6,-0.9q0.5,-0.3 1,-0.6q0.5,-0.3 1.1,-0.6q0.5,-0.4 1,-0.7q0.5,-0.4 0.8,-0.7l0,0l0.7,0.8m4.1,-0.8q0.3,0.2 0.9,0.5q0.5,0.3 1,0.6q0.6,0.3 1.1,0.7q0.6,0.3 1,0.6l0,0l-0.5,1q-0.3,-0.3 -0.9,-0.6q-0.5,-0.4 -1.1,-0.8q-0.6,-0.3 -1.1,-0.6q-0.6,-0.4 -1,-0.6l0,0l0.6,-0.8m23.9,0.9q0,0.5 -0.1,0.9q0,0.5 -0.1,0.9l0,0q-0.1,0.4 -0.4,0.6q-0.3,0.2 -1.1,0.3l0,0q-0.4,0 -0.7,0l0,0q-0.4,-0.1 -0.6,-0.1q-0.3,-0.1 -0.5,-0.2q-0.1,-0.2 -0.2,-0.5q-0.1,-0.2 -0.1,-0.7l0,0l0,-4.4l-1.5,0.1q0,0.2 0,0.5q0,0.2 0,0.4l0,0q-0.1,1 -0.2,1.7q-0.2,0.8 -0.5,1.4q-0.4,0.7 -1,1.2q-0.6,0.5 -1.5,1.1l0,0l-0.6,-0.9q0.9,-0.4 1.4,-0.9q0.5,-0.4 0.8,-0.9q0.3,-0.5 0.4,-1.2q0.2,-0.7 0.2,-1.6l0,0q0,-0.1 0,-0.3q0,-0.2 0,-0.5l0,0q-0.4,0.1 -0.6,0.1l0,0q-0.1,0 -0.2,0q-0.1,0 -0.3,0q-0.1,0 -0.2,0.1q-0.2,0 -0.3,0l0,0l-0.2,-0.9q0.2,-0.1 0.3,-0.2q0.2,0 0.3,-0.2l0,0q0.2,-0.2 0.4,-0.5q0.3,-0.3 0.6,-0.7q0.3,-0.4 0.5,-0.8q0.3,-0.4 0.6,-0.8l0,0l-2.5,0l0,-1l3.3,0q-0.1,-0.4 -0.3,-0.9q-0.2,-0.5 -0.3,-0.7l0,0l1,-0.2q0.1,0.1 0.1,0.4q0.1,0.2 0.2,0.5q0.1,0.2 0.2,0.5q0.1,0.2 0.1,0.4l0,0l3.2,0l0,1l-3.9,0q-0.3,0.4 -0.5,0.8q-0.3,0.4 -0.6,0.9q-0.3,0.4 -0.6,0.7q-0.2,0.4 -0.4,0.6l0,0q0.1,0 0.6,0q0.5,0 1.2,-0.1q0.6,0 1.2,0q0.6,-0.1 1.1,-0.1l0,0q-0.3,-0.5 -0.6,-0.9q-0.4,-0.4 -0.6,-0.7l0,0l0.8,-0.5q0.2,0.3 0.5,0.7q0.4,0.4 0.7,0.9q0.3,0.4 0.6,0.9q0.3,0.4 0.5,0.7l0,0l-0.8,0.8q-0.1,-0.2 -0.2,-0.5q-0.2,-0.2 -0.3,-0.5l0,0q-0.2,0 -0.5,0q-0.3,0.1 -0.7,0.1l0,0l0,4.2q0,0.3 0.1,0.4q0,0.1 0.1,0.2q0,0.1 0.2,0.1q0.1,0 0.3,0l0,0q0.2,0.1 0.4,0l0,0q0.4,0 0.6,-0.1q0.1,-0.1 0.2,-0.4l0,0q0.1,-0.5 0.1,-0.8q0,-0.3 0,-0.7l0,0l0.9,0.3m-11.6,-4.6q-0.1,0 -0.3,0.1q-0.2,0 -0.3,0l0,0l-0.2,-1q0.2,0 0.3,-0.1q0.1,-0.1 0.2,-0.2l0,0q0.2,-0.3 0.4,-0.7q0.3,-0.5 0.5,-1q0.3,-0.5 0.6,-1.1q0.2,-0.6 0.4,-1.1l0,0l0.9,0.4q-0.1,0.5 -0.4,1q-0.3,0.5 -0.5,1q-0.3,0.6 -0.5,1q-0.3,0.4 -0.5,0.7l0,0l1.7,-0.1q0.2,-0.4 0.4,-0.7q0.2,-0.4 0.3,-0.8l0,0l0.9,0.5q-0.3,0.6 -0.6,1.2q-0.4,0.7 -0.7,1.3q-0.4,0.6 -0.7,1.2q-0.4,0.5 -0.6,0.9l0,0l2.3,-0.4l0,1q-0.1,0 -0.3,0.1q-0.2,0 -0.5,0.1q-0.4,0 -0.7,0.1q-0.3,0 -0.7,0.1q-0.3,0 -0.5,0.1q-0.3,0 -0.4,0l0,0q-0.1,0 -0.4,0.1q-0.2,0 -0.4,0.1l0,0l-0.2,-1q0.2,-0.1 0.4,-0.2q0.2,-0.1 0.3,-0.3l0,0q0.3,-0.4 0.7,-1q0.4,-0.7 0.8,-1.4l0,0q-0.2,0 -0.5,0q-0.3,0.1 -0.5,0.1q-0.2,0 -0.4,0q-0.2,0 -0.3,0l0,0m3.9,5.6q-0.5,0.1 -1.1,0.2q-0.6,0.2 -1.3,0.3q-0.7,0.1 -1.3,0.3q-0.7,0.1 -1.1,0.2l0,0l-0.2,-1q0.5,-0.1 1.1,-0.2q0.7,-0.2 1.3,-0.3q0.7,-0.1 1.4,-0.3q0.6,-0.1 1,-0.2l0,0l0.1,0.6l0.1,0.4" fill="#0b0560" id="svg_48"/>
                </g>
            </g>
        </g>
        <g class="border" id="svg_49" transform="matrix(1,0,0,1,3.8,18.2) "/>
    </g>
</svg>
